<?xml version="1.0" standalone="no"?>
<!DOCTYPE svg PUBLIC "-//W3C//DTD SVG 20010904//EN"
 "http://www.w3.org/TR/2001/REC-SVG-20010904/DTD/svg10.dtd">
<svg version="1.0" xmlns="http://www.w3.org/2000/svg"
 width="512.000000pt" height="512.000000pt" viewBox="0 0 512.000000 512.000000"
 preserveAspectRatio="xMidYMid meet">
<metadata>
Created by potrace 1.14, written by Peter Selinger 2001-2017
</metadata>
<g transform="translate(0.000000,512.000000) scale(0.100000,-0.100000)"
fill="#000000" stroke="none">
<path d="M0 2560 l0 -2560 2560 0 2560 0 0 2560 0 2560 -2560 0 -2560 0 0
-2560z m2835 1756 c303 -46 544 -158 734 -340 188 -181 285 -377 311 -627 5
-56 10 -103 10 -105 0 -2 -136 -4 -303 -4 l-303 0 -11 76 c-32 222 -227 421
-489 496 -69 20 -101 23 -254 23 -201 -1 -285 -17 -411 -81 -92 -46 -195 -146
-231 -224 -57 -120 -59 -273 -8 -384 73 -155 240 -233 775 -366 576 -142 849
-268 1052 -484 123 -131 183 -266 204 -462 65 -582 -354 -1031 -1050 -1128
-221 -31 -565 -17 -756 30 -563 140 -940 531 -981 1017 l-7 77 301 0 301 0 6
-37 c28 -180 71 -269 185 -384 70 -70 101 -93 180 -132 154 -75 237 -92 475
-92 173 0 212 3 287 22 329 84 496 286 458 556 -36 253 -229 391 -711 507 -73
18 -199 48 -279 67 -528 129 -869 336 -1000 608 -62 130 -74 188 -74 365 1
138 4 164 28 243 55 183 144 318 300 456 207 182 473 290 795 321 109 11 350
3 466 -14z"/>
</g>
</svg>
